<!--?xml version="1.0" standalone="no"?-->              <svg id="sw-js-blob-svg" viewBox="0 0 100 100" xmlns="http://www.w3.org/2000/svg">                    <defs>                         <linearGradient id="sw-gradient" x1="0" x2="1" y1="1" y2="0">                            <stop id="stop1" stop-color="rgba(171.968, 171.268, 170.937, 1)" offset="0%"></stop>                            <stop id="stop2" stop-color="rgba(187.906, 186.68, 184.657, 1)" offset="100%"></stop>                        </linearGradient>                    </defs>                <path fill="none" d="M15.6,-24C20.1,-18.1,23.8,-13.5,25.5,-8.3C27.2,-3.1,26.9,2.8,24.9,7.9C23,13.1,19.5,17.6,15.1,20.8C10.7,24,5.3,26,-1.9,28.7C-9.2,31.3,-18.4,34.7,-25.9,32.4C-33.4,30.2,-39.2,22.4,-42.5,13.5C-45.8,4.6,-46.6,-5.4,-41.6,-11.3C-36.7,-17.2,-25.9,-19.1,-18,-23.9C-10.1,-28.8,-5.1,-36.7,0.2,-37C5.5,-37.3,11,-30,15.6,-24Z" width="100%" height="100%" transform="translate(50 50)" stroke-width="1" style="transition: all 0.3s ease 0s;" stroke="url(#sw-gradient)"></path> <text x="40" y="55" font-family="Arial" font-size="30" fill="white" text-anchor="middle" dominant-baseline="middle">DK</text>             </svg>
