<?xml version="1.0" standalone="no"?>
<!DOCTYPE svg PUBLIC "-//W3C//DTD SVG 20010904//EN"
 "http://www.w3.org/TR/2001/REC-SVG-20010904/DTD/svg10.dtd">
<svg version="1.0" xmlns="http://www.w3.org/2000/svg"
 width="300.000000pt" height="263.000000pt" viewBox="0 0 300.000000 263.000000"
 preserveAspectRatio="xMidYMid meet">
<metadata>
Created by potrace 1.10, written by Peter Selinger 2001-2011
</metadata>
<g transform="translate(0.000000,263.000000) scale(0.100000,-0.100000)"
fill="#ffffff" stroke="none">
<path d="M1002 2345 c-24 -25 -46 -45 -49 -45 -2 0 -15 -8 -28 -18 -17 -14
-21 -22 -13 -35 10 -19 28 -23 28 -6 0 14 25 39 39 39 6 0 11 4 11 9 0 5 10
11 22 14 12 4 19 9 16 12 -11 11 26 41 46 37 13 -4 17 0 14 14 -6 34 -41 26
-86 -21z"/>
<path d="M1103 2358 c0 -18 2 -28 4 -21 3 7 11 9 20 6 12 -5 14 -3 8 6 -6 11
12 12 91 7 125 -8 133 -9 169 -27 17 -9 36 -14 43 -13 6 1 21 2 33 3 11 0 18
5 15 9 -12 20 -241 62 -337 62 -45 0 -46 -1 -46 -32z"/>
<path d="M1483 2368 c-7 -12 26 -40 41 -35 20 7 15 22 -9 34 -17 8 -27 8 -32
1z"/>
<path d="M1550 2342 c0 -5 7 -12 15 -16 8 -3 12 -11 9 -19 -3 -8 6 -18 20 -25
29 -13 45 2 19 17 -17 10 -17 10 0 11 9 0 17 7 17 15 0 9 -9 15 -24 15 -13 0
-31 3 -40 6 -9 3 -16 2 -16 -4z"/>
<path d="M1700 2319 c0 -5 8 -9 19 -9 10 0 21 -9 24 -20 3 -11 1 -20 -4 -20
-14 0 -11 -38 4 -43 9 -3 9 -8 -2 -21 -13 -15 -15 -15 -32 3 -11 11 -19 32
-19 46 0 14 -4 25 -9 25 -5 0 -13 9 -16 20 -8 25 -25 26 -25 1 0 -10 -7 -24
-15 -31 -20 -17 -19 -22 15 -65 26 -33 30 -46 30 -101 0 -68 -30 -144 -56
-144 -20 0 -17 40 7 79 33 55 14 47 -25 -10 -25 -38 -45 -56 -73 -66 -68 -23
-86 6 -31 52 37 32 82 111 68 120 -6 3 -10 25 -11 48 0 23 -4 51 -9 62 -5 13
-8 -11 -7 -66 1 -80 -1 -89 -27 -123 -40 -53 -93 -85 -146 -88 -39 -3 -45 0
-45 17 0 15 9 21 37 26 43 7 82 30 102 62 14 21 21 95 16 162 l-2 30 -8 -29
c-5 -15 -8 -55 -8 -87 1 -65 -12 -88 -66 -116 -31 -16 -110 -11 -122 8 -11 18
27 49 52 43 15 -4 24 -2 24 5 0 6 7 11 15 11 18 0 18 -1 5 36 -10 29 -12 29
-63 24 -50 -5 -52 -6 -49 -33 2 -17 -1 -26 -7 -23 -14 9 -19 -2 -37 -93 -20
-98 -13 -199 16 -233 l19 -23 1 28 c0 27 35 107 51 117 4 3 7 14 6 25 -1 13 3
19 13 16 8 -3 29 -3 45 -1 40 4 95 3 122 -2 23 -4 72 -58 53 -58 -7 0 -8 -6 0
-19 5 -11 10 -34 10 -51 0 -21 4 -30 13 -27 13 4 14 37 2 75 -6 19 -4 22 19
22 17 0 26 -5 26 -16 0 -8 6 -21 13 -28 17 -17 61 -40 55 -29 -2 4 -10 23 -17
41 -7 17 -17 32 -23 32 -5 0 -17 7 -25 16 -9 8 -24 13 -35 11 -11 -3 -16 -1
-11 6 4 7 0 8 -11 4 -14 -6 -17 -3 -12 9 3 8 6 19 6 23 0 4 9 7 19 8 14 1 18
-3 14 -13 -3 -8 0 -14 6 -14 6 0 11 5 11 10 0 6 5 10 10 10 6 0 10 -9 10 -20
0 -11 5 -19 12 -18 13 3 88 120 88 137 0 6 5 11 10 11 16 0 12 27 -5 34 -11 4
-15 17 -13 40 3 43 38 56 63 22 l16 -21 -6 22 c-5 19 -1 23 29 29 35 6 52 34
21 34 -8 0 -15 5 -15 11 0 5 5 7 12 3 7 -5 8 -3 3 7 -23 39 -48 70 -53 65 -3
-4 5 -17 18 -31 13 -14 19 -25 13 -25 -6 0 -10 -7 -9 -16 0 -9 -4 -19 -11 -21
-13 -5 -29 40 -25 68 3 17 -21 42 -44 45 -8 1 -14 -2 -14 -7z m-453 -266 c-2
-16 -11 -44 -20 -63 -10 -19 -15 -26 -11 -15 3 11 10 39 17 63 13 48 20 55 14
15z m29 -52 c-3 -4 -1 -13 4 -20 5 -8 -1 -34 -13 -64 l-21 -50 -8 29 c-5 16
-5 47 -1 69 l7 40 7 -30 c6 -29 7 -29 8 8 1 23 5 36 11 32 6 -4 8 -10 6 -14z"/>
<path d="M1832 2299 c41 -19 72 -49 49 -49 -5 0 -12 7 -15 16 -3 8 -11 12 -16
9 -6 -4 -17 -3 -23 2 -7 4 -3 -1 10 -12 23 -21 32 -42 13 -30 -14 9 -12 -6 6
-35 l15 -25 -7 25 -6 25 24 -23 c13 -12 27 -19 31 -16 11 11 59 -105 52 -127
-5 -15 -4 -19 4 -15 7 5 11 -3 11 -20 0 -15 8 -36 17 -46 22 -24 28 -125 7
-107 -8 6 -14 16 -14 21 0 5 -7 16 -15 24 -8 9 -15 26 -15 39 0 12 -7 26 -16
29 -13 5 -14 9 -4 21 10 12 9 15 -4 15 -9 0 -16 5 -16 11 0 6 -10 23 -21 37
l-22 27 7 -30 c4 -16 19 -57 33 -90 13 -33 29 -78 35 -100 11 -46 2 -203 -14
-222 -5 -7 -7 -16 -4 -21 3 -5 -4 -21 -15 -36 -11 -14 -17 -30 -14 -36 8 -13
-24 -100 -37 -100 -5 0 -6 -5 -2 -11 4 -7 1 -10 -7 -7 -8 3 -19 -1 -26 -8 -19
-18 -16 -26 5 -15 16 9 18 6 14 -20 -3 -18 0 -29 7 -29 7 0 10 -4 7 -9 -3 -5
5 -12 19 -15 14 -4 25 -13 25 -20 0 -8 9 -16 20 -19 39 -10 12 31 -38 57 l-32
17 17 32 c9 18 16 35 15 40 -1 4 3 7 9 7 6 0 9 7 5 15 -3 8 -2 15 3 15 4 0 8
6 9 13 0 6 3 23 7 37 4 14 7 32 8 40 1 8 7 18 13 22 6 4 14 34 18 67 5 44 16
74 40 110 47 69 49 112 15 248 -31 121 -41 145 -88 210 -31 42 -94 83 -128 83
-10 -1 3 -10 29 -21z"/>
<path d="M733 2292 c-7 -5 -9 -13 -3 -22 7 -11 11 -11 24 -1 29 24 11 43 -21
23z"/>
<path d="M1160 2279 c0 -8 8 -35 17 -61 19 -54 16 -61 -27 -60 -16 0 -30 -4
-30 -9 0 -5 -10 -9 -23 -9 -13 0 -27 -3 -31 -7 -4 -5 -11 -8 -16 -8 -13 0 -60
-55 -60 -71 0 -7 -5 -14 -11 -14 -5 0 -8 -4 -4 -9 3 -5 -2 -16 -10 -24 -8 -9
-15 -23 -15 -31 0 -9 -4 -16 -10 -16 -5 0 -12 -11 -16 -25 -3 -14 -10 -25 -14
-25 -5 0 -11 -9 -15 -20 -3 -11 -9 -19 -13 -17 -4 1 -19 -11 -34 -26 -15 -15
-38 -27 -53 -27 -24 0 -32 -10 -18 -24 13 -13 12 -41 -4 -58 -8 -10 -15 -29
-15 -43 0 -14 -3 -25 -7 -25 -4 0 -6 -17 -6 -37 1 -21 -5 -48 -13 -60 -8 -13
-12 -30 -8 -38 3 -9 0 -15 -10 -15 -14 0 -14 -2 -1 -15 15 -15 33 -88 28 -114
-1 -7 2 -10 7 -7 13 8 23 -20 15 -41 -5 -12 -3 -14 7 -8 16 10 7 92 -16 136
-14 28 -14 38 -3 73 7 23 14 46 15 51 2 6 12 52 23 103 19 94 35 127 56 118
18 -7 81 56 106 106 12 23 33 59 46 79 21 32 28 50 32 80 1 7 72 42 91 44 42
5 79 18 83 28 2 7 -4 39 -14 71 -20 62 -29 79 -29 55z"/>
<path d="M821 2219 c-11 -18 -23 -46 -27 -62 -8 -37 -21 -41 -72 -23 -23 8
-42 12 -42 8 0 -4 -5 0 -10 8 -6 10 -10 11 -10 3 0 -9 -11 -11 -32 -7 -18 3
-41 5 -51 5 -22 0 -49 -20 -42 -31 3 -5 -4 -11 -15 -15 -15 -5 -19 -12 -15
-26 5 -14 3 -17 -9 -13 -9 3 -16 1 -16 -5 0 -6 -19 -30 -42 -53 -24 -24 -60
-63 -82 -88 -21 -25 -46 -49 -55 -55 -15 -10 -27 -35 -16 -35 3 0 22 7 42 15
19 8 43 15 52 15 25 0 41 14 46 39 2 12 0 19 -6 16 -5 -4 -7 -11 -4 -16 4 -5
-3 -9 -15 -9 -19 0 -19 1 -5 23 8 13 13 26 10 29 -3 3 1 8 10 12 9 3 13 2 10
-4 -3 -6 1 -7 10 -4 9 4 13 13 10 24 -4 11 3 20 20 28 14 6 25 15 24 19 -3 21
2 33 15 33 14 0 46 56 46 80 0 10 3 10 15 0 10 -9 15 -9 15 -1 0 6 8 11 18 11
15 0 15 -2 2 -11 -12 -8 -10 -9 7 -4 34 9 73 -4 66 -23 -4 -14 -3 -14 5 -3 9
13 13 13 29 1 15 -12 16 -12 6 0 -22 24 -14 31 12 14 21 -13 31 -15 50 -6 20
9 26 8 35 -6 7 -13 8 -10 4 13 -7 44 26 100 58 99 14 -1 25 4 25 11 0 7 -6 11
-14 8 -7 -3 -20 0 -28 7 -12 10 -18 6 -34 -21z"/>
<path d="M1751 2055 c-12 -31 -21 -70 -20 -88 1 -30 2 -30 9 9 7 34 26 84 48
127 2 4 -1 7 -6 7 -6 0 -20 -25 -31 -55z"/>
<path d="M1825 2094 c3 -11 6 -44 6 -73 1 -32 5 -48 10 -40 9 16 1 97 -13 119
-7 11 -8 10 -3 -6z"/>
<path d="M279 1961 c-24 -15 -55 -41 -69 -57 -19 -21 -14 -19 17 8 23 20 56
44 72 53 17 8 31 18 31 20 0 8 -4 6 -51 -24z"/>
<path d="M1348 1912 c-20 -9 -48 -34 -62 -54 -24 -35 -25 -43 -23 -171 1 -97
-2 -138 -10 -146 -8 -7 -13 -36 -13 -69 l0 -57 -19 31 c-29 48 -41 51 -41 9 0
-39 15 -65 74 -130 37 -40 44 -59 26 -70 -14 -9 -13 -101 2 -124 9 -15 7 -25
-11 -52 -13 -19 -20 -25 -16 -14 4 11 8 27 9 35 0 8 5 18 10 21 4 4 3 9 -2 13
-6 3 -19 -7 -28 -24 -21 -35 -43 -46 -51 -24 -3 8 -12 13 -19 10 -8 -3 -14 -1
-14 5 0 6 -7 6 -20 -1 -17 -9 -22 -7 -30 15 -15 39 -12 85 5 91 17 7 21 44 5
44 -5 0 -10 -4 -10 -10 0 -5 -7 -10 -16 -10 -12 0 -15 6 -10 25 4 14 2 25 -3
25 -11 0 -33 -59 -26 -70 2 -4 -11 -29 -30 -56 -19 -27 -35 -52 -35 -57 0 -4
-11 -25 -24 -46 -13 -21 -48 -111 -77 -200 -28 -89 -54 -159 -58 -156 -6 7
-42 -193 -42 -236 0 -17 -9 -31 -24 -39 -30 -16 -40 -73 -18 -106 8 -13 11
-24 7 -24 -5 0 -9 -13 -9 -30 0 -16 3 -30 7 -30 4 0 6 -6 3 -12 -2 -7 -6 -51
-8 -98 l-5 -85 15 50 c8 28 21 70 29 95 9 25 19 64 23 87 8 43 28 76 41 68 8
-5 22 21 75 140 49 110 208 367 234 377 4 2 24 37 44 78 19 41 54 99 76 129
23 30 41 60 41 67 0 7 5 14 12 16 9 3 9 17 -2 61 -7 32 -10 60 -7 63 3 4 2 15
-3 25 -6 10 -13 53 -16 96 -4 54 -11 81 -22 89 -14 10 -14 14 -3 28 11 13 34
16 117 16 97 0 104 1 104 20 0 13 7 20 20 20 11 0 20 -7 20 -15 0 -8 7 -15 15
-15 9 0 14 8 12 21 -1 12 4 24 12 27 10 3 12 0 7 -13 -5 -14 -3 -16 11 -10 23
9 33 9 57 -1 19 -7 19 -7 -1 27 -11 19 -23 46 -27 61 -3 15 -15 30 -27 33 -16
6 -19 12 -14 36 5 21 3 29 -7 29 -11 0 -11 2 1 9 9 6 10 11 2 15 -6 4 -14 -1
-17 -11 -3 -10 -10 -28 -15 -41 -6 -17 -6 -21 2 -16 18 11 24 -10 21 -65 -4
-50 -5 -51 -35 -51 -17 0 -38 -7 -48 -16 -20 -18 -174 -30 -184 -14 -4 6 -12
7 -18 3 -9 -5 -9 -3 -1 8 6 8 10 28 9 44 0 17 3 36 8 43 7 8 4 19 -9 34 -19
21 -19 21 6 8 24 -13 24 -13 8 12 -24 37 -30 93 -14 133 15 35 74 80 117 88
l24 4 -25 1 c-14 1 -42 -6 -62 -16z m-231 -835 c10 -3 37 -11 60 -17 l42 -11
-40 -82 c-69 -141 -83 -167 -104 -190 -35 -40 -65 -86 -65 -100 0 -8 -7 -20
-15 -27 -8 -7 -15 -18 -15 -26 0 -7 -8 -19 -17 -26 -10 -7 -18 -19 -19 -25 -2
-31 -5 -35 -18 -30 -9 4 -12 0 -9 -13 6 -21 -14 -63 -26 -56 -4 3 -6 -6 -3
-19 3 -17 -1 -27 -12 -31 -9 -3 -16 -15 -16 -26 0 -10 -4 -16 -10 -13 -5 3
-10 0 -10 -7 0 -7 -12 -26 -26 -41 -17 -19 -27 -41 -28 -65 -1 -43 -20 -50
-24 -10 -2 16 1 28 7 28 6 0 11 7 11 16 0 9 -5 12 -12 8 -10 -5 -10 -4 -1 6 8
8 9 20 3 36 -8 19 -5 28 16 47 20 19 25 35 30 94 2 39 18 112 34 163 17 50 30
96 30 101 0 6 6 25 14 42 8 18 22 55 32 82 9 28 22 56 27 63 5 6 7 12 3 12 -9
0 63 141 88 171 l21 25 17 -37 c9 -20 24 -39 35 -42z"/>
<path d="M1440 1920 c0 -4 8 -10 18 -13 9 -2 26 -8 37 -13 17 -7 18 -6 7 8
-13 17 -62 31 -62 18z"/>
<path d="M1390 1880 c0 -11 -5 -20 -11 -20 -5 0 -7 -4 -4 -10 4 -6 13 -5 25 2
15 10 26 8 59 -8 33 -16 42 -26 51 -62 12 -49 6 -66 -22 -59 -12 3 -22 -1 -25
-10 -3 -8 -20 -21 -37 -29 -17 -7 -25 -13 -17 -14 28 0 101 42 122 71 15 21
16 27 5 23 -12 -5 -14 0 -12 24 3 21 -4 38 -24 62 -25 29 -32 32 -64 26 -24
-5 -36 -3 -36 5 0 6 7 9 15 5 8 -3 15 -1 15 4 0 6 -9 10 -20 10 -13 0 -20 -7
-20 -20z"/>
<path d="M205 1862 c-28 -23 -65 -72 -65 -85 0 -12 89 83 90 96 0 10 -2 9 -25
-11z"/>
<path d="M1755 1873 c-11 -3 -25 -10 -32 -15 -7 -5 -17 -7 -23 -3 -5 3 -10 2
-10 -3 0 -18 14 -21 31 -6 9 8 19 12 22 7 6 -10 147 -4 147 7 0 17 -85 25
-135 13z"/>
<path d="M374 1831 c-46 -15 -141 -65 -154 -80 -12 -14 -59 -33 -68 -27 -12 7
-48 -31 -61 -67 -15 -39 -14 -50 6 -43 9 4 20 1 25 -6 6 -10 8 -8 8 5 0 9 5
17 10 17 6 0 10 5 10 10 0 5 -5 9 -11 7 -16 -3 -23 22 -7 27 7 2 26 7 41 10
15 4 25 11 22 16 -4 6 2 13 12 17 10 4 23 11 28 15 33 26 115 76 145 88 19 7
39 17 45 22 12 10 10 10 -51 -11z"/>
<path d="M449 1820 c-50 -9 -89 -26 -89 -39 0 -17 14 -20 25 -4 7 9 34 20 61
24 27 4 59 9 72 12 12 3 22 2 22 -2 0 -4 6 -8 14 -8 8 0 12 6 9 14 -6 14 -41
15 -114 3z"/>
<path d="M674 1803 c-4 -15 -18 -52 -31 -82 -13 -29 -22 -58 -21 -63 2 -6 17
23 33 63 16 41 33 79 37 86 5 6 5 14 -1 18 -6 3 -14 -7 -17 -22z"/>
<path d="M1713 1812 c-6 -4 -7 -15 -3 -27 11 -27 77 -103 101 -115 23 -13 25
2 3 24 -8 9 -12 21 -8 28 5 7 2 9 -8 5 -19 -7 -51 14 -54 37 -2 12 6 16 29 16
36 0 28 12 -11 18 -15 2 -29 7 -32 12 -3 5 -10 6 -17 2z"/>
<path d="M1387 1777 c-8 -22 -1 -37 19 -37 8 0 14 10 14 23 0 16 -3 19 -9 8
-7 -11 -10 -10 -13 5 -3 18 -4 18 -11 1z"/>
<path d="M1307 1766 c-6 -15 48 -86 66 -86 7 0 17 8 23 18 10 15 7 17 -19 17
-23 0 -33 7 -47 33 -12 22 -19 28 -23 18z"/>
<path d="M1836 1599 c-9 -41 -12 -109 -5 -109 4 0 10 17 15 38 11 54 12 69 3
83 -5 9 -9 6 -13 -12z"/>
<path d="M553 1543 c-16 -27 -34 -55 -38 -63 -7 -13 -6 -13 7 0 17 16 72 110
66 110 -3 0 -18 -21 -35 -47z"/>
<path d="M60 1556 c0 -13 -3 -33 -6 -43 -4 -13 -3 -14 4 -5 7 10 12 1 21 -33
6 -25 18 -48 26 -51 7 -3 11 -13 8 -22 -4 -15 -3 -15 6 -2 9 12 11 11 11 -8 0
-13 7 -36 15 -52 9 -17 13 -30 9 -30 -4 0 -1 -6 5 -13 6 -8 8 -17 4 -20 -3 -4
-1 -7 5 -7 7 0 11 -3 10 -7 -3 -13 63 -143 73 -143 5 0 8 -3 7 -7 -4 -13 32
-73 43 -73 6 0 7 -4 4 -10 -3 -5 -2 -10 3 -10 5 0 14 -12 20 -26 7 -15 17 -22
24 -18 7 5 9 2 5 -9 -3 -9 -3 -17 1 -19 7 -3 47 -76 47 -87 1 -3 7 -17 15 -31
8 -14 15 -31 16 -38 1 -8 10 -22 18 -31 9 -10 13 -21 9 -24 -3 -4 2 -16 12
-27 10 -11 15 -20 11 -20 -4 0 2 -13 14 -30 12 -16 19 -30 15 -30 -3 0 3 -10
15 -22 11 -12 20 -25 20 -28 0 -4 10 -18 23 -32 49 -55 65 -77 71 -96 5 -13
13 -19 22 -15 18 6 19 23 1 23 -19 0 -41 68 -38 123 1 26 -2 47 -8 47 -5 0 -7
-18 -4 -40 3 -22 3 -40 0 -40 -8 0 -56 85 -73 128 -8 20 -12 27 -10 15 6 -30
-8 -29 -28 2 -9 14 -14 25 -10 25 4 0 1 6 -5 14 -7 8 -14 23 -16 35 -2 12 -11
29 -20 38 -12 11 -13 19 -6 26 15 15 14 27 -4 27 -8 0 -15 7 -15 16 0 9 -15
37 -34 63 -18 25 -31 53 -29 61 4 13 3 13 -6 0 -12 -17 -12 -17 -41 35 -60
106 -108 205 -97 200 7 -3 2 2 -10 11 -23 17 -33 41 -11 28 13 -8 3 11 -21 40
-9 11 -10 16 -4 12 9 -5 11 -2 7 8 -3 9 -14 16 -23 16 -12 0 -13 2 -3 9 10 6
10 10 -3 21 -8 7 -15 19 -15 26 0 8 -4 14 -10 14 -16 0 -38 53 -46 108 -7 53
-24 72 -24 28z"/>
<path d="M1717 1564 c-9 -10 4 -34 19 -34 16 0 16 2 8 24 -6 17 -16 20 -27 10z"/>
<path d="M1513 1494 c-3 -10 -12 -23 -20 -27 -18 -11 -16 -44 3 -51 13 -5 15
-1 12 19 -6 31 6 32 28 3 l16 -23 -7 25 c-4 14 -8 33 -9 42 -4 27 -15 33 -23
12z"/>
<path d="M1620 1490 c0 -5 4 -10 8 -10 18 0 7 -33 -14 -42 -13 -6 -26 -23 -29
-39 -4 -15 -15 -31 -26 -34 -10 -4 -19 -9 -19 -13 0 -4 -3 -18 -7 -32 -4 -19
2 -14 27 20 18 25 45 59 60 75 33 37 44 71 23 79 -20 8 -23 8 -23 -4z"/>
<path d="M497 1363 c7 -97 11 -100 12 -10 1 42 -3 77 -8 77 -5 0 -7 -30 -4
-67z"/>
<path d="M638 1379 c-32 -22 -58 -44 -58 -49 0 -16 12 -40 21 -40 4 0 6 7 3
15 -4 8 -1 15 6 15 6 0 8 4 5 10 -3 6 1 7 10 4 12 -5 16 -2 13 12 -2 15 4 20
27 23 26 3 28 4 10 11 -19 8 -19 9 3 9 13 1 22 7 22 16 0 19 5 21 -62 -26z"/>
<path d="M796 1350 c4 -19 15 -44 26 -55 20 -20 20 -20 4 17 -26 64 -37 78
-30 38z"/>
<path d="M852 1349 c9 -14 16 -41 16 -61 0 -20 5 -44 12 -55 10 -16 11 -15 7
10 -2 15 1 30 7 34 6 3 8 3 4 -2 -4 -4 -2 -17 3 -28 9 -16 13 -17 20 -6 6 10
9 11 9 2 0 -7 5 -13 10 -13 14 0 -8 42 -26 53 -8 4 -14 14 -14 21 0 7 -14 25
-32 42 -30 28 -31 28 -16 3z"/>
<path d="M1827 1330 c-9 -11 -24 -20 -32 -20 -17 0 -19 -18 -6 -39 7 -10 15
-4 36 28 29 44 31 64 2 31z"/>
<path d="M1337 1326 c5 -8 26 -36 48 -62 22 -26 40 -51 40 -57 0 -6 6 -12 13
-15 11 -3 10 3 -1 29 -8 19 -17 52 -21 74 -7 37 -9 38 -19 19 l-12 -22 -20 24
c-22 26 -41 32 -28 10z"/>
<path d="M1660 1283 c-36 -14 -73 -34 -82 -44 -31 -31 -20 -31 25 0 23 16 62
35 87 42 25 7 49 16 55 21 18 16 -20 7 -85 -19z"/>
<path d="M968 1235 c-8 -36 -14 -65 -13 -65 2 0 13 16 24 36 30 50 35 38 11
-24 -24 -64 -17 -69 10 -7 20 47 18 96 -4 114 -9 8 -16 -6 -28 -54z"/>
<path d="M799 1239 c-1 -30 -1 -57 -1 -60 2 -10 -18 -132 -24 -151 -3 -10 -1
-18 4 -18 20 0 46 259 29 277 -4 3 -8 -18 -8 -48z"/>
<path d="M1978 1263 c-35 -9 -17 -24 22 -20 33 3 40 1 39 -12 -3 -34 2 -46 11
-24 19 47 -12 72 -72 56z"/>
<path d="M1810 1233 c0 -9 46 -73 53 -73 13 0 7 18 -8 24 -8 3 -15 16 -15 29
0 14 -6 24 -15 24 -8 0 -15 -2 -15 -4z"/>
<path d="M920 1105 c-12 -31 -20 -58 -18 -61 3 -2 15 21 27 52 12 31 20 59 18
61 -3 2 -15 -21 -27 -52z"/>
<path d="M1478 1153 c-3 -4 -8 -21 -11 -38 -4 -16 -4 -24 -1 -17 3 6 11 9 17
5 6 -4 8 0 4 10 -3 9 -1 18 6 20 9 3 9 8 1 17 -7 6 -14 8 -16 3z"/>
<path d="M1860 1139 c0 -12 25 -25 67 -38 23 -6 48 -20 55 -30 7 -10 27 -25
43 -34 40 -20 76 -71 78 -110 2 -26 7 -32 35 -39 24 -7 38 -5 55 7 21 16 21
16 -15 10 -20 -4 -41 -4 -46 -1 -13 8 8 98 32 144 17 34 15 52 -9 52 -9 0 -11
8 -8 23 5 22 5 22 -10 2 -15 -20 -16 -20 -30 -1 -12 17 -28 19 -131 20 -64 1
-116 -2 -116 -5z m243 -48 c40 -25 47 -50 21 -75 -14 -15 -18 -14 -43 11 -15
16 -43 40 -62 55 -26 21 -31 29 -21 36 18 12 59 2 105 -27z"/>
<path d="M1801 1126 c-7 -8 -38 -31 -70 -52 -31 -20 -62 -48 -68 -61 -11 -23
-11 -24 6 -11 80 59 99 76 93 83 -4 4 0 5 8 3 9 -1 15 0 15 3 0 4 9 16 19 28
11 12 17 21 14 21 -3 0 -11 -6 -17 -14z"/>
<path d="M2267 1104 c-3 -3 -19 -6 -36 -6 -17 -1 -31 -5 -31 -10 0 -4 5 -8 10
-8 16 0 12 -22 -7 -36 -34 -24 -6 -23 30 2 21 14 42 22 48 19 5 -4 32 -1 59 6
39 10 53 10 62 1 7 -7 19 -12 28 -12 18 0 43 -36 35 -50 -4 -6 -2 -10 4 -10 6
0 8 -6 5 -14 -3 -7 2 -16 12 -20 13 -5 15 -2 9 11 -4 10 -8 25 -9 33 -1 9 -5
21 -10 28 -4 6 -4 12 1 12 4 0 -7 9 -26 21 -35 21 -92 23 -150 4 -20 -7 -23
-5 -18 8 6 16 -5 31 -16 21z"/>
<path d="M1310 1068 c0 -9 -22 -54 -50 -99 -53 -88 -62 -113 -30 -84 19 17 25
14 20 -10 -1 -6 3 -6 9 0 6 6 12 23 13 37 1 15 6 24 10 22 4 -3 8 0 8 6 0 6 6
8 13 4 6 -4 9 -4 6 0 -4 4 0 32 8 63 10 39 11 59 4 66 -8 8 -11 6 -11 -5z"/>
<path d="M1851 1054 c-59 -16 -67 -20 -54 -27 14 -7 134 24 128 34 -7 11 -7
11 -74 -7z"/>
<path d="M2365 1053 c-11 -3 -31 -13 -45 -23 -14 -10 -27 -17 -30 -17 -9 3
-54 -33 -48 -38 7 -7 79 23 100 42 10 9 25 13 35 11 25 -7 49 18 27 26 -9 3
-16 5 -17 5 -1 -1 -11 -4 -22 -6z"/>
<path d="M1346 920 c3 -74 8 -146 11 -160 11 -46 11 -50 2 -50 -5 0 -9 -4 -9
-10 0 -5 6 -9 13 -7 6 1 13 -7 13 -18 1 -11 3 -22 4 -25 1 -3 3 -34 4 -71 2
-36 5 -69 8 -75 10 -15 13 -138 5 -152 -5 -7 -3 -12 7 -12 13 0 15 14 11 90
-7 156 -29 352 -61 545 l-13 80 5 -135z"/>
<path d="M1496 1041 c-3 -5 3 -11 14 -14 11 -3 23 -13 26 -22 4 -10 18 -29 31
-43 13 -14 21 -32 18 -40 -8 -20 6 -63 18 -55 6 3 7 1 3 -5 -4 -6 0 -24 7 -39
8 -15 17 -46 21 -68 3 -22 8 -51 11 -65 4 -14 7 -29 8 -35 2 -5 5 -14 8 -20 3
-5 16 -44 29 -85 13 -41 27 -80 32 -86 4 -6 10 -37 13 -69 6 -68 41 -139 71
-143 13 -2 21 3 21 12 0 11 -4 13 -12 6 -7 -6 -11 -1 -13 16 -1 13 2 24 6 24
12 0 49 -70 57 -108 4 -18 12 -32 18 -31 7 1 20 -1 30 -5 9 -5 25 -5 35 -1 13
6 9 10 -21 19 -22 7 -43 20 -48 29 -12 21 2 23 34 5 12 -7 28 -13 36 -14 8 -2
18 -9 22 -16 5 -7 9 -8 9 -3 0 6 5 3 10 -5 6 -8 8 -26 5 -40 -6 -29 11 -65 19
-40 10 34 14 77 7 88 -4 6 -35 26 -69 43 -73 36 -165 117 -179 156 -6 16 -23
66 -38 113 -15 47 -38 105 -50 130 -26 52 -49 154 -41 177 4 9 -1 24 -10 34
-8 9 -18 36 -21 58 -3 22 -13 48 -22 58 -9 10 -24 30 -34 45 -19 31 -53 52
-61 39z"/>
<path d="M1912 1004 c-83 -34 -202 -134 -161 -134 5 0 9 4 9 9 0 5 11 16 25
25 18 12 24 13 23 4 -2 -7 -7 -17 -13 -21 -6 -5 -5 -7 3 -5 8 2 14 8 14 13 0
15 19 35 29 30 4 -3 11 0 16 7 4 7 24 25 43 39 34 25 47 27 98 14 17 -4 23 -2
20 7 -7 19 -72 27 -106 12z"/>
<path d="M1725 968 c-43 -23 -75 -62 -74 -87 2 -23 2 -23 6 -4 2 12 10 26 16
31 24 20 88 52 102 52 8 0 15 5 15 10 0 13 -40 12 -65 -2z"/>
<path d="M846 937 c-4 -17 -9 -72 -11 -122 -3 -71 -2 -80 4 -43 8 39 28 111
47 168 3 8 -4 4 -15 -10 l-21 -25 9 27 c6 15 6 30 2 32 -5 3 -11 -9 -15 -27z"/>
<path d="M2510 941 c0 -12 -3 -20 -7 -18 -5 3 -19 0 -33 -6 -25 -10 -25 -10
10 -18 64 -15 91 9 50 46 -19 18 -20 17 -20 -4z"/>
<path d="M666 884 c-38 -68 -59 -135 -46 -148 7 -7 10 -6 11 2 1 7 2 15 3 20
1 4 6 22 10 41 5 19 19 55 32 79 32 60 23 66 -10 6z"/>
<path d="M2020 907 c-43 -21 -70 -55 -85 -107 -7 -22 -6 -23 8 -11 9 7 15 17
12 21 -3 4 2 13 10 20 8 7 12 16 9 21 -3 5 -1 9 4 9 5 0 21 11 36 25 15 14 31
23 36 20 9 -6 25 13 18 21 -2 2 -24 -6 -48 -19z"/>
<path d="M2569 893 c-4 -12 -17 -23 -30 -25 -24 -4 -23 -5 5 -16 35 -15 38
-13 34 30 -2 27 -4 29 -9 11z"/>
<path d="M2437 864 c3 -8 12 -13 19 -10 17 7 28 -10 12 -18 -7 -3 -4 -5 6 -3
32 4 29 24 -5 36 -40 14 -40 14 -32 -5z"/>
<path d="M2195 826 c55 -50 65 -55 65 -28 0 15 -2 15 -11 2 -8 -12 -9 -10 -7
9 2 18 -2 25 -20 27 -12 2 -35 11 -50 20 -15 9 -4 -5 23 -30z"/>
<path d="M2325 801 c21 -20 35 -25 70 -22 15 1 10 7 -19 21 -53 27 -78 27 -51
1z"/>
<path d="M2472 747 c26 -18 56 -45 68 -60 12 -15 28 -27 35 -27 8 0 34 -18 59
-40 26 -21 53 -43 61 -48 18 -9 29 -52 14 -52 -6 0 -7 -5 -4 -10 4 -6 10 -8
14 -6 3 3 7 -4 7 -15 0 -10 -4 -19 -8 -19 -4 0 -8 5 -8 10 0 6 -5 10 -10 10
-6 0 -8 -12 -5 -27 2 -15 0 -30 -5 -33 -5 -3 -5 -21 0 -43 4 -20 4 -39 0 -42
-14 -8 -23 74 -11 89 9 11 8 17 -2 28 -7 7 -12 19 -10 25 3 7 -4 25 -15 40
-11 16 -30 48 -42 73 -13 25 -25 39 -27 32 -6 -15 28 -112 38 -112 26 0 44
-144 21 -169 -9 -9 -12 -32 -10 -63 1 -26 0 -48 -4 -48 -5 0 -8 -11 -8 -24 0
-81 48 -64 75 27 1 4 4 9 5 12 1 3 3 8 4 13 1 4 7 17 14 28 6 12 9 24 6 27 -3
3 -1 15 6 26 7 14 7 21 0 21 -5 0 -10 -8 -10 -17 0 -14 -2 -15 -9 -4 -6 9 -2
20 10 32 17 17 18 31 15 110 -4 78 -8 96 -32 132 -41 63 -135 157 -155 157
-13 0 -6 -12 27 -44 25 -25 50 -47 57 -49 9 -3 9 -8 1 -16 -8 -9 -20 -7 -50
11 -61 35 -65 40 -46 62 13 15 14 17 2 10 -8 -5 -19 -9 -25 -10 -16 -1 -46 16
-41 24 3 4 -7 9 -22 10 -23 2 -20 -2 20 -31z"/>
<path d="M2467 701 c28 -28 57 -51 65 -51 13 0 -22 33 -85 79 -19 14 -12 3 20
-28z"/>
<path d="M2370 733 c1 -13 47 -85 53 -81 3 2 9 0 13 -4 4 -5 2 -8 -5 -8 -7 0
-9 -5 -6 -10 4 -6 11 -7 17 -4 7 5 9 0 6 -13 -4 -17 -1 -20 16 -16 18 4 19 3
4 -7 -18 -11 -15 -35 5 -43 8 -3 12 8 12 29 0 25 -13 51 -49 99 -45 59 -67 78
-66 58z"/>
<path d="M770 583 c-14 -55 -23 -120 -16 -112 8 7 37 151 32 156 -2 2 -9 -18
-16 -44z"/>
<path d="M660 383 c0 -11 -3 -35 -7 -53 -4 -24 -3 -31 5 -26 9 5 12 -11 12
-56 0 -93 22 -224 40 -242 17 -17 19 -2 5 59 -8 32 -19 102 -25 155 -15 135
-21 174 -26 179 -2 2 -4 -5 -4 -16z"/>
<path d="M796 130 c-6 -46 -4 -87 4 -110 2 -3 2 -8 1 -12 0 -5 6 -8 14 -8 12
0 14 8 9 37 -3 21 -9 63 -13 93 l-7 55 -8 -55z"/>
<path d="M2092 140 c7 -11 16 -20 21 -20 4 0 5 -4 2 -10 -3 -5 -1 -10 6 -10 6
0 20 -9 29 -20 14 -16 20 -18 26 -9 4 8 2 15 -5 17 -7 2 -29 20 -48 38 -40 39
-49 43 -31 14z"/>
<path d="M2603 137 c-4 -6 0 -8 9 -4 12 4 14 1 10 -16 -7 -26 -42 -68 -52 -62
-4 3 -10 -6 -12 -20 -3 -14 -3 -25 -1 -25 11 0 83 86 83 100 0 9 5 21 11 27 7
7 3 11 -15 11 -15 0 -29 -5 -33 -11z"/>
<path d="M2055 105 c0 -21 4 -31 10 -25 16 17 23 11 51 -35 14 -25 30 -45 35
-45 6 0 6 6 2 13 -9 14 -95 127 -97 127 0 0 -1 -16 -1 -35z"/>
<path d="M2180 50 c0 -5 7 -10 16 -10 9 0 12 -5 8 -12 -4 -6 -3 -8 4 -4 5 3
12 0 15 -6 3 -10 8 -10 18 1 8 8 9 11 3 8 -6 -3 -18 3 -27 14 -18 20 -37 25
-37 9z"/>
</g>
</svg>
